<?xml version="1.0" encoding="iso-8859-1"?>
<!-- Generator: Adobe Illustrator 18.0.0, SVG Export Plug-In . SVG Version: 6.00 Build 0)  -->
<!DOCTYPE svg PUBLIC "-//W3C//DTD SVG 1.1//EN" "http://www.w3.org/Graphics/SVG/1.1/DTD/svg11.dtd">
<svg version="1.1" id="Capa_1" xmlns="http://www.w3.org/2000/svg" xmlns:xlink="http://www.w3.org/1999/xlink" x="0px" y="0px"
	 viewBox="0 0 286.522 286.522" style="enable-background:new 0 0 286.522 286.522;" xml:space="preserve">
<g>
	<path d="M257.926,166.892c38.128-38.128,38.128-100.168,0-138.296s-100.168-38.128-138.296,0
		c-31.035,31.035-36.806,77.912-17.318,114.841L2.929,242.821c-3.905,3.905-3.905,10.237,0,14.142l26.63,26.63
		c3.905,3.905,10.237,3.905,14.142,0l99.383-99.383C180.014,203.698,226.891,197.927,257.926,166.892z M36.63,262.38l-12.488-12.488
		l89.529-89.529c1.872,2.243,3.854,4.424,5.959,6.529s4.287,4.087,6.529,5.959L36.63,262.38z M133.772,152.75
		c-30.33-30.33-30.33-79.681,0-110.012s79.681-30.33,110.012,0s30.33,79.681,0,110.012S164.103,183.08,133.772,152.75z"/>
	<path d="M235.447,51.075c-25.733-25.733-67.605-25.733-93.338,0s-25.733,67.605,0,93.338s67.605,25.733,93.338,0
		S261.181,76.809,235.447,51.075z M156.251,130.271c-17.935-17.935-17.935-47.119,0-65.054s47.119-17.935,65.054,0
		s17.935,47.119,0,65.054S174.187,148.206,156.251,130.271z"/>
	<path d="M213.527,72.995c-13.646-13.646-35.851-13.646-49.497,0c-3.905,3.905-3.905,10.237,0,14.142
		c3.905,3.905,10.237,3.905,14.142,0c5.848-5.848,15.365-5.848,21.213,0c3.905,3.905,10.237,3.905,14.142,0
		C217.432,83.232,217.432,76.901,213.527,72.995z"/>
</g>
<g>
</g>
<g>
</g>
<g>
</g>
<g>
</g>
<g>
</g>
<g>
</g>
<g>
</g>
<g>
</g>
<g>
</g>
<g>
</g>
<g>
</g>
<g>
</g>
<g>
</g>
<g>
</g>
<g>
</g>
</svg>
